<?xml version="1.0" encoding="UTF-8"?>
<svg xmlns="http://www.w3.org/2000/svg" xmlns:xlink="http://www.w3.org/1999/xlink" width="32px" height="32px" viewBox="0 0 32 31" version="1.1">
<g id="surface1">
<path style=" stroke:none;fill-rule:nonzero;fill:rgb(100%,90.980393%,83.92157%);fill-opacity:1;" d="M 16.070312 0.386719 C 12.457031 4.125 8.519531 4.964844 4.714844 5.695312 L 4.710938 5.695312 L 4.710938 5.699219 C 4.703125 5.699219 4.699219 5.699219 4.695312 5.699219 L 4.710938 5.699219 L 4.710938 26.113281 C 4.710938 28.738281 6.867188 30.867188 9.527344 30.867188 L 27.480469 30.867188 L 27.480469 5.695312 L 27.417969 5.695312 C 23.765625 5.335938 18.199219 3.46875 16.070312 0.386719 Z M 16.070312 0.386719 "/>
<path style=" stroke:none;fill-rule:nonzero;fill:rgb(100%,74.901962%,40.784314%);fill-opacity:1;" d="M 6.269531 7.160156 L 6.230469 25.371094 C 6.199219 27.28125 7.082031 29.3125 9.785156 29.71875 L 15.96875 29.75 L 15.96875 2.472656 C 14.375 3.875 12.78125 6.164062 6.40625 7.160156 Z M 6.269531 7.160156 "/>
</g>
</svg>
